<svg xmlns="http://www.w3.org/2000/svg" viewBox="0 0 512.001 512.001" style="enable-background:new 0 0 512.001 512.001" xml:space="preserve"><path style="fill:#3e3b43" d="M21.044 296.319V195.455h484.372v253.332c0 21.877-17.735 39.612-39.612 39.612H60.656c-21.877 0-39.612-17.735-39.612-39.612V296.319z"/><path style="fill:#2f2d30" d="M461.417 195.455v208.948c0 21.877-17.735 39.612-39.612 39.612H21.429v4.771c0 21.877 17.735 39.612 39.612 39.612h405.147c21.877 0 39.612-17.735 39.612-39.612V195.455h-44.383z"/><path style="fill:#ffcd00" d="M21.044 195.451h484.368v42.934H21.044z"/><path style="fill:#3e3b43" d="M168.255 78.454 464.036 24.01c13.225-2.434 26.037 6.394 28.47 19.619l11.386 61.854-484.499 89.181L8.008 132.81c-2.434-13.225 6.394-26.037 19.619-28.471l64.97-11.959 75.658-13.926z"/><path transform="rotate(169.577 257.688 128.609)" style="fill:#ffcd00" d="M11.369 106.773h492.642v43.674H11.369z"/><path style="fill:#cca400" d="m144.136 171.703 39.136-51.609-90.675 16.69-39.138 51.609zm181.352-33.382 39.137-51.608-90.676 16.691-39.138 51.608zm90.676-16.69 39.137-51.609 40.685-7.488 7.906 42.949zM144.74 238.393l47.031-42.938h-90.652l-47.031 42.938zm228.336-42.938-47.031 42.938h-90.652l47.03-42.938zm43.621 42.938 47.031-42.938h41.688v42.938z"/><circle style="fill:#cd2a00" cx="273.954" cy="359.456" r="75.615"/><path style="fill:#fff" d="m256.763 320.159 49.468 39.303-49.468 39.301z"/><path d="M504.403 187.857H98.345l406.922-74.901a7.597 7.597 0 0 0 6.097-8.848l-11.386-61.854c-1.544-8.392-6.285-15.694-13.35-20.562-7.064-4.868-15.579-6.698-23.967-5.153L166.88 70.982a7.599 7.599 0 0 0 2.751 14.945l295.78-54.444c4.399-.808 8.872.156 12.595 2.722 3.722 2.564 6.217 6.401 7.028 10.8l2.104 11.432-469.555 86.43-2.104-11.431c-.809-4.401.157-8.873 2.722-12.595 2.565-3.722 6.401-6.217 10.801-7.028l64.97-11.959a7.599 7.599 0 0 0-2.751-14.945l-64.97 11.957c-8.392 1.545-15.695 6.286-20.563 13.35S-1.01 125.792.535 134.185L11.92 196.04a7.54 7.54 0 0 0 .512 1.656v98.622a7.598 7.598 0 0 0 15.196 0V245.99h469.176v202.796c0 17.653-14.362 32.015-32.015 32.015H59.643c-17.653 0-32.015-14.361-32.015-32.015v-82.621a7.598 7.598 0 0 0-15.196 0v82.621c0 26.032 21.178 47.211 47.211 47.211H464.79c26.032 0 47.211-21.178 47.211-47.211V195.455a7.598 7.598 0 0 0-7.598-7.598zm-158.767 42.938 30.386-27.742h68.116l-30.386 27.742h-68.116zm-90.652 0 30.387-27.742h68.115L323.1 230.795h-68.116zm-90.653 0 30.386-27.742h68.116l-30.387 27.742h-68.115zm-90.652 0 30.387-27.742h68.115l-30.386 27.742H73.679zm91.702-99.682-25.519 33.651-68.511 12.611 25.519-33.651 68.511-12.611zm90.677-16.691-25.52 33.651-68.511 12.611 25.519-33.651 68.512-12.611zm90.676-16.69-25.518 33.651-68.512 12.611 25.519-33.651 68.511-12.611zM437.41 81.04l-25.518 33.651-68.513 12.611 25.519-33.651L437.41 81.04zm57.634 18.346-60.989 11.226 25.519-33.651 30.314-5.58 5.156 28.005zM74.705 147.803l-25.519 33.651-23.696 4.361-5.155-28.004 54.37-10.008zm-47.076 55.25h53.899l-30.387 27.742H27.629v-27.742zm408.659 27.742 30.386-27.742h30.13v27.742h-60.516z"/><path d="M357.158 359.462c0-45.882-37.327-83.209-83.209-83.209-45.883 0-83.21 37.327-83.21 83.209s37.327 83.209 83.21 83.209c45.882 0 83.209-37.328 83.209-83.209zm-151.222 0c0-37.503 30.511-68.013 68.014-68.013s68.013 30.511 68.013 68.013-30.511 68.013-68.013 68.013c-37.504 0-68.014-30.511-68.014-68.013z"/><path d="M313.828 359.462a7.602 7.602 0 0 0-2.871-5.949l-49.467-39.302a7.598 7.598 0 0 0-12.325 5.948v78.605a7.597 7.597 0 0 0 12.325 5.949l49.467-39.302a7.598 7.598 0 0 0 2.871-5.949zm-49.467 23.56V335.9l29.655 23.561-29.655 23.561zm-106.846-11.188a7.598 7.598 0 0 0 0-15.196H67.486a7.598 7.598 0 0 0 0 15.196h90.029zm313.746 0a7.598 7.598 0 0 0 7.598-7.598 7.598 7.598 0 0 0-7.598-7.598h-90.03a7.598 7.598 0 0 0-7.598 7.598 7.598 7.598 0 0 0 7.598 7.598h90.03z"/></svg>